<svg xmlns="http://www.w3.org/2000/svg" xmlns:xlink="http://www.w3.org/1999/xlink" width="24" height="24" viewBox="0 0 24 24">
    <defs>
        <path id="a" d="M10 0C4.48 0 0 4.48 0 10s4.48 10 10 10 10-4.48 10-10S15.52 0 10 0zM2 10c0-4.42 3.58-8 8-8 1.85 0 3.55.63 4.9 1.69L3.69 14.9A7.902 7.902 0 0 1 2 10zm8 8c-1.85 0-3.55-.63-4.9-1.69L16.31 5.1A7.902 7.902 0 0 1 18 10c0 4.42-3.58 8-8 8z"/>
    </defs>
    <g fill="none" fill-rule="evenodd">
        <path d="M0 0h24v24H0z"/>
        <g transform="translate(2 2)">
            <mask id="b" fill="#fff">
                <use xlink:href="#a"/>
            </mask>
            <use fill="#1B1B1E" fill-rule="nonzero" xlink:href="#a"/>
            <path fill="#686874" d="M-2-2h24v24H-2z" mask="url(#b)"/>
        </g>
    </g>
</svg>
