<svg xmlns="http://www.w3.org/2000/svg" width="27" height="18" viewBox="0 0 27 18">
    <g fill="none" fill-rule="evenodd">
        <path fill="#F1F2F4" d="M24.978.015H2.022C.905.015 0 .935 0 2.069V15.93c0 1.135.905 2.054 2.022 2.054h22.956c1.117 0 2.022-.92 2.022-2.054V2.07C27 .934 26.095.015 24.978.015z"/>
        <path fill="#FF4B55" fill-rule="nonzero" d="M16.084 5.064c-2.139-1.449-5.028-.856-6.453 1.313a2.386 2.386 0 0 0 .645 3.278A2.303 2.303 0 0 0 13.502 9a2.307 2.307 0 0 1 3.226-.657 2.386 2.386 0 0 1 .644 3.279c1.426-2.173.85-5.108-1.288-6.557"/>
        <path fill="#41479B" fill-rule="nonzero" d="M9.631 6.377a2.386 2.386 0 0 0 .645 3.278A2.303 2.303 0 0 0 13.502 9a2.307 2.307 0 0 1 3.226-.656 2.386 2.386 0 0 1 .644 3.278 4.603 4.603 0 0 1-6.451 1.313C8.783 11.485 8.205 8.55 9.63 6.377"/>
        <g fill="#464655" fill-rule="nonzero">
            <path d="M18.453 3.278l.845 1.291a.239.239 0 0 1-.064.328l-.214.145a.23.23 0 0 1-.324-.065l-.846-1.29a.239.239 0 0 1 .064-.329l.216-.146a.23.23 0 0 1 .323.066zM19.757 5.269l.849 1.29a.239.239 0 0 1-.065.329l-.216.144a.23.23 0 0 1-.322-.066l-.848-1.289a.239.239 0 0 1 .065-.328l.215-.146a.23.23 0 0 1 .322.066zM19.358 2.664l2.153 3.283a.239.239 0 0 1-.064.327l-.217.147a.23.23 0 0 1-.322-.066l-2.154-3.282a.239.239 0 0 1 .064-.328l.217-.147a.23.23 0 0 1 .323.066zM20.261 2.051l.848 1.294a.239.239 0 0 1-.066.328l-.215.145a.23.23 0 0 1-.322-.066l-.848-1.292a.239.239 0 0 1 .064-.328l.216-.147a.23.23 0 0 1 .323.066zM21.567 4.046l.846 1.291a.239.239 0 0 1-.065.328l-.214.146a.23.23 0 0 1-.324-.066l-.846-1.29a.239.239 0 0 1 .065-.328l.215-.146a.23.23 0 0 1 .323.065zM6.999 11.035l2.153 3.279a.239.239 0 0 1-.065.328l-.215.146a.23.23 0 0 1-.323-.066l-2.153-3.279a.239.239 0 0 1 .064-.327l.216-.147a.23.23 0 0 1 .323.066zM6.095 11.648l.845 1.288a.239.239 0 0 1-.064.328l-.214.145a.23.23 0 0 1-.323-.065l-.847-1.287a.239.239 0 0 1 .065-.328l.215-.146a.23.23 0 0 1 .323.065zM7.401 13.64l.846 1.29a.239.239 0 0 1-.064.328l-.215.146a.23.23 0 0 1-.323-.065l-.847-1.291a.239.239 0 0 1 .065-.328l.215-.146a.23.23 0 0 1 .323.065zM5.191 12.261l2.152 3.28a.239.239 0 0 1-.065.327l-.215.146a.23.23 0 0 1-.323-.065L4.588 12.67a.239.239 0 0 1 .064-.328l.217-.146a.23.23 0 0 1 .322.065zM6.396 6.56L8.55 3.277a.23.23 0 0 1 .323-.066l.215.146c.107.073.136.22.065.328l-2.154 3.28a.23.23 0 0 1-.322.066l-.214-.144a.239.239 0 0 1-.066-.329zM5.492 5.947l2.153-3.282a.23.23 0 0 1 .323-.066l.215.146c.107.073.136.22.064.328L6.095 6.355a.23.23 0 0 1-.323.066l-.215-.146a.239.239 0 0 1-.065-.328zM4.587 5.337L6.74 2.051a.23.23 0 0 1 .324-.065l.215.146a.239.239 0 0 1 .064.327L5.191 5.745a.23.23 0 0 1-.323.066l-.216-.146a.239.239 0 0 1-.065-.328zM17.85 14.314l.846-1.288a.23.23 0 0 1 .323-.065l.215.146c.107.072.135.219.064.327l-.845 1.288a.23.23 0 0 1-.323.066l-.216-.146a.239.239 0 0 1-.064-.328zM19.155 12.329l.848-1.294a.23.23 0 0 1 .323-.066l.216.147c.107.072.136.219.064.328l-.849 1.292a.23.23 0 0 1-.322.065l-.214-.144a.239.239 0 0 1-.066-.328zM18.754 14.93l.846-1.29a.23.23 0 0 1 .323-.066l.217.146c.107.073.136.22.064.328l-.846 1.291a.23.23 0 0 1-.323.066l-.217-.147a.239.239 0 0 1-.064-.328zM20.06 12.936l.848-1.288a.23.23 0 0 1 .322-.066l.217.147c.107.072.135.22.064.328l-.847 1.288a.23.23 0 0 1-.323.065l-.216-.146a.239.239 0 0 1-.065-.328zM19.658 15.54l.848-1.289a.23.23 0 0 1 .321-.066l.216.145c.107.072.137.22.065.329l-.847 1.29a.23.23 0 0 1-.323.066l-.216-.147a.239.239 0 0 1-.064-.328zM20.965 13.552l.845-1.29a.23.23 0 0 1 .323-.066l.215.146c.107.072.136.22.064.328l-.846 1.288a.23.23 0 0 1-.322.066l-.214-.144a.239.239 0 0 1-.065-.328z"/>
        </g>
    </g>
</svg>
