<svg xmlns="http://www.w3.org/2000/svg" width="27" height="18" viewBox="0 0 27 18">
    <g fill="none" fill-rule="nonzero">
        <path fill="#41479B" d="M24.978.015H2.022C.905.015 0 .935 0 2.069V15.93c0 1.135.905 2.054 2.022 2.054h22.956c1.117 0 2.022-.92 2.022-2.054V2.07C27 .934 26.095.015 24.978.015z"/>
        <g fill="#FFE15A">
            <path d="M13.69 2.072l.186.569.59.005c.076 0 .108.1.047.145l-.475.356.178.572c.023.074-.06.135-.122.09l-.48-.349-.48.349c-.062.045-.145-.016-.122-.09l.178-.572-.475-.356c-.061-.046-.03-.145.047-.145l.59-.005.186-.569a.08.08 0 0 1 .151 0zM13.69 14.28l.186.568.59.005c.076 0 .108.1.047.145l-.475.356.178.572c.023.074-.06.135-.122.09l-.48-.349-.48.349c-.062.045-.145-.016-.122-.09l.178-.572-.475-.356c-.061-.046-.03-.145.047-.145l.59-.005.186-.569a.08.08 0 0 1 .151 0zM19.697 8.176l.187.568.59.005c.076 0 .108.1.047.146l-.475.356.178.571c.023.074-.06.135-.122.09l-.48-.348-.48.348c-.062.045-.145-.016-.122-.09l.178-.571-.475-.356c-.061-.046-.03-.145.047-.146l.59-.005.187-.568a.08.08 0 0 1 .15 0zM7.681 8.176l.187.568.59.005c.076 0 .108.1.046.146l-.474.356.178.571c.023.074-.06.135-.122.09l-.48-.348-.48.348c-.062.045-.145-.016-.122-.09l.178-.571-.475-.356c-.061-.046-.03-.145.047-.146l.59-.005.186-.568a.08.08 0 0 1 .151 0zM8.583 4.989l.187.568.59.005c.076 0 .108.1.046.145l-.474.356.178.572c.023.074-.06.135-.122.09l-.48-.349-.48.349c-.062.045-.145-.016-.122-.09l.178-.572-.475-.356c-.061-.046-.03-.145.047-.145l.59-.005.186-.568a.08.08 0 0 1 .151 0zM18.99 11.092l.186.569.59.004c.076 0 .108.1.047.146l-.475.356.178.571c.023.074-.06.136-.122.09l-.48-.348-.48.348c-.062.045-.145-.016-.122-.09l.178-.571-.475-.356c-.061-.046-.03-.145.047-.146l.59-.004.187-.569a.08.08 0 0 1 .15 0zM16.79 2.754l.187.569.59.005c.076 0 .108.1.047.145l-.475.356.178.572c.023.074-.06.135-.122.09l-.48-.349-.48.349c-.062.045-.145-.016-.122-.09l.178-.572-.475-.356c-.061-.046-.03-.145.047-.145l.59-.005.186-.569a.08.08 0 0 1 .151 0zM10.782 13.326l.187.569.59.004c.076 0 .108.1.046.146l-.474.356.178.571c.023.074-.06.136-.122.09l-.48-.348-.48.348c-.062.046-.145-.016-.122-.09l.178-.571-.475-.356c-.061-.046-.03-.145.047-.146l.59-.004.186-.569a.08.08 0 0 1 .151 0zM18.839 4.989l-.187.568-.59.005c-.076 0-.108.1-.047.145l.475.356-.178.572c-.023.074.06.135.122.09l.48-.349.48.349c.062.045.145-.016.122-.09l-.178-.572.475-.356c.061-.046.03-.145-.047-.145l-.59-.005-.187-.568a.08.08 0 0 0-.15 0zM8.432 11.092l-.186.569-.59.004c-.077 0-.108.1-.047.146l.475.356-.178.571c-.023.074.06.136.122.09l.48-.348.48.348c.062.045.145-.016.122-.09l-.178-.571.474-.356c.062-.046.03-.145-.046-.146l-.59-.004-.187-.569a.08.08 0 0 0-.15 0zM10.631 2.754l-.186.569-.59.005c-.077 0-.108.1-.047.145l.475.356-.178.572c-.023.074.06.135.122.09l.48-.349.48.349c.062.045.145-.016.122-.09l-.178-.572.474-.356c.062-.046.03-.145-.046-.145l-.59-.005-.187-.569a.08.08 0 0 0-.15 0zM16.64 13.326l-.187.569-.59.004c-.077 0-.108.1-.047.146l.475.356-.178.571c-.023.074.06.136.122.09l.48-.348.48.348c.062.046.145-.016.122-.09l-.178-.571.475-.356c.061-.046.03-.145-.047-.146l-.59-.004-.187-.569a.08.08 0 0 0-.15 0z"/>
        </g>
    </g>
</svg>
