<svg xmlns="http://www.w3.org/2000/svg" xmlns:xlink="http://www.w3.org/1999/xlink" width="24" height="24" viewBox="0 0 24 24">
    <defs>
        <path id="a" d="M19 3H5a2 2 0 0 0-2 2v14a2 2 0 0 0 2 2h14a2 2 0 0 0 2-2V5a2 2 0 0 0-2-2zm-9 14l-5-5 1.41-1.41L10 14.17l7.59-7.59L19 8l-9 9z"/>
    </defs>
    <g fill="none" fill-rule="evenodd">
        <g>
            <path d="M0 0h24v24H0z"/>
            <mask id="b" fill="#fff">
                <use xlink:href="#a"/>
            </mask>
            <use fill="#1B1B1E" fill-rule="nonzero" xlink:href="#a"/>
            <path fill="#686874" d="M0 0h24v24H0z" mask="url(#b)"/>
        </g>
    </g>
</svg>
