<svg xmlns="http://www.w3.org/2000/svg" xmlns:xlink="http://www.w3.org/1999/xlink" width="24" height="24" viewBox="0 0 24 24">
    <defs>
        <path id="a" d="M16 2v14H2V2h14m1.1-2H.9C.4 0 0 .4 0 .9v16.2c0 .4.4.9.9.9h16.2c.4 0 .9-.5.9-.9V.9c0-.5-.5-.9-.9-.9zM7 4h7v2H7V4zM4 8h10v2H4V8zm10 4v2H4v-2h10zM6 4v2H4V4h2z"/>
    </defs>
    <g fill="none" fill-rule="evenodd">
        <path d="M0 0h24v24H0z"/>
        <g transform="translate(3 3)">
            <mask id="b" fill="#fff">
                <use xlink:href="#a"/>
            </mask>
            <use fill="#000" fill-rule="nonzero" xlink:href="#a"/>
            <path fill="#686874" d="M-3-3h24v24H-3z" mask="url(#b)"/>
        </g>
    </g>
</svg>
