<svg xmlns="http://www.w3.org/2000/svg" xmlns:xlink="http://www.w3.org/1999/xlink" width="24" height="24" viewBox="0 0 24 24">
    <defs>
        <path id="a" d="M14 0v4c0 1-4 4-4 5s4 4 4 5v4H0v-4c0-1 4-4 4-5S0 5 0 4V0h14zm-2 2H2v1.587l.066.082.14.164.188.209c.102.11.219.233.363.381l1.27 1.28.32.33c.143.15.264.282.381.413l.328.383C5.681 7.586 6 8.174 6 9c0 .826-.32 1.414-.944 2.171l-.162.193c-.249.29-.484.543-.867.933l-.912.918c-.41.412-.649.66-.845.88l-.204.236-.066.082V16v-1c1-1 3-3 5-3s4 2 5 3l-.001-.001L12 16v-1l-.001-.001.001-.586-.066-.082-.14-.164-.188-.209c-.102-.11-.219-.233-.363-.381l-1.27-1.28-.32-.33c-.143-.15-.264-.282-.381-.413l-.328-.383C8.319 10.414 8 9.826 8 9c0-.826.32-1.414.944-2.171l.162-.193c.249-.29.484-.543.867-.933l.912-.918c.41-.412.649-.66.845-.88l.204-.236.066-.082V2zm-2 2c0 1-1 3-3 3S4 5 4 4h6z"/>
    </defs>
    <g fill="none" fill-rule="evenodd">
        <path d="M0 0h24v24H0z"/>
        <g transform="translate(5 3)">
            <mask id="b" fill="#fff">
                <use xlink:href="#a"/>
            </mask>
            <use fill="#979797" fill-rule="nonzero" xlink:href="#a"/>
            <path fill="#686874" d="M-5-3h24v24H-5z" mask="url(#b)"/>
        </g>
    </g>
</svg>
