<svg xmlns="http://www.w3.org/2000/svg" xmlns:xlink="http://www.w3.org/1999/xlink" width="24" height="24" viewBox="0 0 24 24">
    <defs>
        <path id="a" d="M18.885 12.877c.035-.28.058-.573.058-.877 0-.304-.023-.596-.07-.877l1.956-1.486a.456.456 0 0 0 .116-.573l-1.852-3.117a.477.477 0 0 0-.567-.202l-2.302.9a6.83 6.83 0 0 0-1.563-.877l-.347-2.385A.458.458 0 0 0 13.851 3H10.15a.446.446 0 0 0-.452.382L9.35 5.768a7.012 7.012 0 0 0-1.562.878l-2.303-.9a.464.464 0 0 0-.567.202L3.067 9.064a.428.428 0 0 0 .115.573l1.956 1.486a5.502 5.502 0 0 0-.081.877c0 .293.023.596.07.877L3.17 14.364a.456.456 0 0 0-.116.573l1.852 3.116c.115.203.358.27.567.203l2.302-.9c.486.36.995.652 1.563.878l.347 2.384a.467.467 0 0 0 .463.383h3.702c.232 0 .429-.157.452-.383l.347-2.384a7.012 7.012 0 0 0 1.562-.878l2.303.9c.208.079.451 0 .567-.203l1.851-3.116a.428.428 0 0 0-.115-.573l-1.933-1.486zM12 15c-1.65 0-3-1.35-3-3s1.35-3 3-3 3 1.35 3 3-1.35 3-3 3z"/>
    </defs>
    <g fill="none" fill-rule="evenodd">
        <g>
            <path d="M0 0h24v24H0z"/>
            <mask id="b" fill="#fff">
                <use xlink:href="#a"/>
            </mask>
            <use fill="#222" fill-rule="nonzero" xlink:href="#a"/>
            <path fill="#686874" d="M0 0h24v24H0z" mask="url(#b)"/>
        </g>
    </g>
</svg>
