<svg xmlns="http://www.w3.org/2000/svg" width="27" height="18" viewBox="0 0 27 18">
    <g fill="none" fill-rule="nonzero">
        <path fill="#FF4B55" d="M24.978 17.985H2.022C.905 17.985 0 17.065 0 15.931V2.069C0 .934.905.015 2.022.015h22.956C26.095.015 27 .935 27 2.069v13.862c0 1.135-.905 2.054-2.022 2.054z"/>
        <g fill="#F5F5F5">
            <path d="M11.838 9.692c-.587.006-1.246-.185-1.824-.831a.109.109 0 0 1 .011-.154.105.105 0 0 1 .148.011c.88.982 1.971.81 2.623.573-.24.01-.543-.007-.738-.137-.813-.543-.445-1.12-.985-1.819-.536-.693-1.019-.676-1.779-.56-.752.116-.992-.444-1.067-.756-.013-.055-.09-.059-.11-.005-.937 2.574 1.883 5.76 4.779 3.47a3.143 3.143 0 0 1-1.058.208zM9.725 8.82a.05.05 0 0 1-.095-.003l-.108-.362-.372-.013c-.048-.002-.066-.064-.027-.092l.305-.216-.102-.364c-.014-.047.04-.084.078-.054l.297.228.308-.212c.04-.027.091.013.075.06l-.121.356.293.233c.038.03.016.092-.032.09l-.372-.007-.127.356zM13.915 7.982c.466-.363 1.106-.611 1.95-.446a.108.108 0 0 1 .082.13.106.106 0 0 1-.125.081c-1.284-.25-2.055.553-2.437 1.14.186-.156.44-.325.672-.34.97-.06 1.017.626 1.861.855.839.228 1.215-.08 1.754-.636.534-.551 1.057-.248 1.3-.045.044.037.107-.007.091-.062-.769-2.632-4.906-3.462-5.871.134a3.22 3.22 0 0 1 .723-.811zm2.206-.588c-.013-.047.04-.085.078-.056l.3.223.305-.215c.04-.028.092.01.077.057l-.117.36.296.227c.039.03.018.092-.03.092l-.372-.002-.122.357a.05.05 0 0 1-.095-.001l-.113-.36-.372-.008c-.049 0-.068-.063-.029-.092l.302-.22-.108-.362z"/>
            <path d="M12.36 8.23c-.228-.549-.305-1.24.064-2.03a.105.105 0 0 1 .144-.047c.051.027.07.09.046.143-.559 1.2.013 2.16.477 2.682-.102-.223-.2-.514-.156-.746.185-.97.85-.844 1.28-1.617.428-.768.229-1.215-.167-1.885-.392-.663.028-1.101.283-1.29.045-.033.02-.107-.037-.105-2.7.099-4.527 3.96-1.34 5.81a3.241 3.241 0 0 1-.593-.915zm-.008-2.317c-.048.002-.07-.06-.034-.09l.288-.24-.129-.354c-.017-.046.034-.087.074-.06l.313.204.292-.235c.037-.03.091.006.08.053l-.096.366.31.209c.04.027.023.09-.025.093l-.371.022-.1.363a.05.05 0 0 1-.095.005l-.135-.352-.372.016zM14.465 9.476c.485.335.918.874 1.029 1.74a.107.107 0 0 1-.096.12.107.107 0 0 1-.115-.095c-.17-1.317-1.162-1.809-1.83-1.992.203.13.441.321.528.54.362.918-.265 1.179-.215 2.065.05.88.456 1.147 1.146 1.492.683.342.564.941.45 1.24-.02.053.04.1.087.068 2.218-1.569 1.695-5.82-1.97-5.62.295.077.652.21.986.442zm1.243 1.943c.04-.028.091.01.076.057l-.115.36.298.226c.039.03.018.092-.03.092h-.372l-.12.358a.05.05 0 0 1-.095 0l-.115-.36-.372-.006c-.048 0-.068-.063-.029-.092l.3-.222-.109-.361c-.014-.047.039-.085.078-.056l.3.222.305-.218z"/>
            <path d="M13.252 10.544c-.167.572-.541 1.155-1.32 1.525a.105.105 0 0 1-.14-.056.109.109 0 0 1 .053-.14c1.183-.565 1.343-1.675 1.311-2.377-.06.237-.167.525-.346.676-.75.629-1.185.101-2 .42-.811.316-.938.79-1.051 1.563-.113.764-.711.832-1.026.813-.056-.004-.082.07-.037.104 2.145 1.669 5.972-.13 4.67-3.616.017.308 0 .694-.114 1.088zm-1.444 1.794c.038.03.017.092-.03.091l-.373-.001-.122.357a.05.05 0 0 1-.095-.001l-.113-.36-.372-.008c-.048 0-.068-.063-.028-.092l.301-.22-.107-.362c-.014-.047.038-.085.077-.056l.3.223.305-.216c.04-.028.092.012.077.058l-.117.359.297.228z"/>
        </g>
    </g>
</svg>
