<svg xmlns="http://www.w3.org/2000/svg" width="27" height="18" viewBox="0 0 27 18">
    <g fill="none" fill-rule="nonzero">
        <path fill="#F5F5F5" d="M24.978.015H2.022C.905.015 0 .935 0 2.069v13.862c0 1.135.905 2.054 2.022 2.054h22.956c1.117 0 2.022-.92 2.022-2.054V2.07C27 .934 26.095.015 24.978.015z"/>
        <g fill="#FF4B55">
            <path d="M.111 1.397H26.89A2.025 2.025 0 0 0 24.978.015H2.022C1.137.015.385.593.112 1.397zM0 5.544h27v1.382H0zM0 2.779h27v1.382H0zM0 9.218a.47.47 0 0 0 .466.473H27V8.31H0v.91zM0 13.839h27v1.382H0zM26.889 16.603H.11a2.025 2.025 0 0 0 1.911 1.382h22.956c.885 0 1.637-.578 1.91-1.382zM0 11.074h27v1.382H0z"/>
        </g>
        <path fill="#41479B" d="M.466 9.691h11.637a.47.47 0 0 0 .466-.473V.488a.47.47 0 0 0-.466-.473H2.023C.904.015 0 .935 0 2.069v7.15a.47.47 0 0 0 .466.472z"/>
        <g fill="#F5F5F5">
            <path d="M1.307 1.1l.103.314.326.003c.042 0 .06.055.026.08l-.262.197.098.315c.013.041-.033.075-.067.05l-.265-.193L1 2.06c-.035.025-.08-.009-.068-.05l.099-.315-.263-.197c-.033-.025-.016-.08.026-.08l.326-.003.103-.314c.013-.04.07-.04.083 0zM1.307 2.742l.103.314.326.003c.042 0 .06.055.026.08l-.262.197.098.315c.013.041-.033.075-.067.05l-.265-.192L1 3.7c-.035.025-.08-.009-.068-.05l.099-.315-.263-.197c-.033-.025-.016-.08.026-.08l.326-.003.103-.314c.013-.04.07-.04.083 0zM1.307 4.385l.103.314.326.002c.042 0 .06.055.026.08l-.262.197.098.316c.013.04-.033.074-.067.05l-.265-.193L1 5.343c-.035.025-.08-.008-.068-.05l.099-.315-.263-.196c-.033-.026-.016-.08.026-.08l.326-.003.103-.314c.013-.041.07-.041.083 0zM1.307 6.027l.103.314.326.002c.042 0 .06.055.026.08L1.5 6.62l.098.316c.013.04-.033.074-.067.05l-.265-.193L1 6.986c-.035.024-.08-.01-.068-.05l.099-.316-.263-.196c-.033-.026-.016-.08.026-.08l.326-.003.103-.314c.013-.04.07-.04.083 0zM1.307 7.669l.103.314.326.002c.042 0 .06.055.026.08l-.262.197.098.316c.013.04-.033.075-.067.05l-.265-.193L1 8.628c-.035.025-.08-.01-.068-.05l.099-.315-.263-.197c-.033-.026-.016-.08.026-.08l.326-.003.103-.314c.013-.04.07-.04.083 0zM2.562 1.905l.103.314.326.003c.042 0 .06.055.025.08l-.262.197.099.315c.012.041-.033.075-.068.05l-.265-.192-.265.192c-.034.025-.08-.009-.067-.05l.098-.315-.262-.197c-.034-.025-.016-.08.026-.08l.326-.003.103-.314c.013-.04.07-.04.083 0zM2.562 3.548l.103.313.326.003c.042 0 .06.055.025.08l-.262.197.099.316c.012.04-.033.074-.068.05l-.265-.193-.265.192c-.034.025-.08-.009-.067-.05l.098-.315-.262-.197c-.034-.025-.016-.08.026-.08l.326-.003.103-.313c.013-.041.07-.041.083 0zM2.562 5.19l.103.314.326.002c.042 0 .06.055.025.08l-.262.197.099.316c.012.04-.033.074-.068.05l-.265-.193-.265.192c-.034.025-.08-.008-.067-.05l.098-.315-.262-.196c-.034-.026-.016-.08.026-.08l.326-.003.103-.314c.013-.04.07-.04.083 0zM2.562 6.832l.103.314.326.002c.042 0 .06.055.025.08l-.262.197.099.316c.012.04-.033.075-.068.05l-.265-.193-.265.193c-.034.025-.08-.01-.067-.05l.098-.316-.262-.196c-.034-.026-.016-.08.026-.08l.326-.003.103-.314c.013-.04.07-.04.083 0zM3.817 1.1l.103.314.325.003c.043 0 .06.055.026.08l-.262.197.098.315c.013.041-.033.075-.067.05l-.265-.193-.265.193c-.034.025-.08-.009-.067-.05l.098-.315-.262-.197c-.034-.025-.017-.08.026-.08l.325-.003.103-.314c.014-.04.07-.04.084 0zM3.817 2.742l.103.314.325.003c.043 0 .06.055.026.08l-.262.197.098.315c.013.041-.033.075-.067.05l-.265-.192-.265.192c-.034.025-.08-.009-.067-.05l.098-.315-.262-.197c-.034-.025-.017-.08.026-.08l.325-.003.103-.314c.014-.04.07-.04.084 0zM3.817 4.385l.103.314.325.002c.043 0 .06.055.026.08l-.262.197.098.316c.013.04-.033.074-.067.05l-.265-.193-.265.192c-.034.025-.08-.009-.067-.05l.098-.315-.262-.196c-.034-.026-.017-.08.026-.08l.325-.003.103-.314c.014-.041.07-.041.084 0zM3.817 6.027l.103.314.325.002c.043 0 .06.055.026.08l-.262.197.098.316c.013.04-.033.074-.067.05l-.265-.193-.265.192c-.034.025-.08-.008-.067-.05l.098-.315-.262-.196c-.034-.026-.017-.08.026-.08l.325-.003.103-.314c.014-.04.07-.04.084 0zM3.817 7.669l.103.314.325.002c.043 0 .06.055.026.08l-.262.197.098.316c.013.04-.033.075-.067.05l-.265-.193-.265.193c-.034.025-.08-.01-.067-.05l.098-.316-.262-.196c-.034-.026-.017-.08.026-.08l.325-.003.103-.314c.014-.04.07-.04.084 0zM5.071 1.905l.103.314.326.003c.042 0 .06.055.026.08l-.262.197.098.315c.013.041-.033.075-.067.05l-.265-.192-.265.192c-.035.025-.08-.009-.068-.05l.099-.315-.262-.197c-.034-.025-.017-.08.025-.08l.326-.003.103-.314c.013-.04.07-.04.083 0zM5.071 3.548l.103.313.326.003c.042 0 .06.055.026.08l-.262.197.098.316c.013.04-.033.074-.067.05l-.265-.193-.265.192c-.035.025-.08-.009-.068-.05l.099-.315-.262-.197c-.034-.025-.017-.08.025-.08l.326-.003.103-.313c.013-.041.07-.041.083 0zM5.071 5.19l.103.314.326.002c.042 0 .06.055.026.08l-.262.197.098.316c.013.04-.033.074-.067.05l-.265-.193-.265.192c-.035.025-.08-.008-.068-.05l.099-.315-.262-.196c-.034-.026-.017-.08.025-.08l.326-.003.103-.314c.013-.04.07-.04.083 0zM5.071 6.832l.103.314.326.002c.042 0 .06.055.026.08l-.262.197.098.316c.013.04-.033.075-.067.05l-.265-.193-.265.193c-.035.025-.08-.01-.068-.05l.099-.316-.262-.196c-.034-.026-.017-.08.025-.08l.326-.003.103-.314c.013-.04.07-.04.083 0zM6.326 1.1l.103.314.326.003c.042 0 .06.055.026.08l-.262.197.098.315c.013.041-.033.075-.067.05l-.266-.193-.265.193c-.034.025-.08-.009-.067-.05l.098-.315-.262-.197c-.034-.025-.016-.08.026-.08l.326-.003.103-.314c.013-.04.07-.04.083 0zM6.326 2.742l.103.314.326.003c.042 0 .06.055.026.08l-.262.197.098.315c.013.041-.033.075-.067.05l-.266-.192-.265.192c-.034.025-.08-.009-.067-.05l.098-.315-.262-.197c-.034-.025-.016-.08.026-.08l.326-.003.103-.314c.013-.04.07-.04.083 0zM6.326 4.385l.103.314.326.002c.042 0 .06.055.026.08l-.262.197.098.316c.013.04-.033.074-.067.05l-.266-.193-.265.192c-.034.025-.08-.009-.067-.05l.098-.315-.262-.197c-.034-.025-.016-.08.026-.08l.326-.003.103-.313c.013-.041.07-.041.083 0zM6.326 6.027l.103.314.326.002c.042 0 .06.055.026.08l-.262.197.098.316c.013.04-.033.074-.067.05l-.266-.193-.265.192c-.034.025-.08-.008-.067-.05l.098-.315-.262-.196c-.034-.026-.016-.08.026-.08l.326-.003.103-.314c.013-.04.07-.04.083 0zM6.326 7.669l.103.314.326.002c.042 0 .06.055.026.08l-.262.197.098.316c.013.04-.033.075-.067.05l-.266-.193-.265.193c-.034.025-.08-.01-.067-.05l.098-.316-.262-.196c-.034-.026-.016-.08.026-.08l.326-.003.103-.314c.013-.04.07-.04.083 0zM7.58 1.905l.104.314.326.003c.042 0 .06.055.025.08l-.262.197.099.315c.012.041-.033.075-.068.05l-.265-.192-.265.192c-.034.025-.08-.009-.067-.05l.098-.315-.262-.197c-.034-.025-.016-.08.026-.08l.326-.003.103-.314c.013-.04.07-.04.083 0zM7.58 3.548l.104.313.326.003c.042 0 .06.055.025.08l-.262.197.099.316c.012.04-.033.074-.068.05l-.265-.193-.265.192c-.034.025-.08-.009-.067-.05l.098-.315-.262-.197c-.034-.025-.016-.08.026-.08l.326-.003.103-.313c.013-.041.07-.041.083 0zM7.58 5.19l.104.314.326.002c.042 0 .06.055.025.08l-.262.197.099.316c.012.04-.033.074-.068.05l-.265-.193-.265.192c-.034.025-.08-.008-.067-.05l.098-.315-.262-.196c-.034-.026-.016-.08.026-.08l.326-.003.103-.314c.013-.04.07-.04.083 0zM7.58 6.832l.104.314.326.002c.042 0 .06.055.025.08l-.262.197.099.316c.012.04-.033.075-.068.05l-.265-.193-.265.193c-.034.025-.08-.01-.067-.05l.098-.316-.262-.196c-.034-.026-.016-.08.026-.08l.326-.003.103-.314c.013-.04.07-.04.083 0zM8.836 1.1l.103.314.325.003c.043 0 .06.055.026.08l-.262.197.098.315c.013.041-.033.075-.067.05l-.265-.193-.265.193c-.034.025-.08-.009-.067-.05l.098-.315-.262-.197c-.034-.025-.017-.08.026-.08l.325-.003.103-.314c.014-.04.07-.04.084 0zM8.836 2.742l.103.314.325.003c.043 0 .06.055.026.08l-.262.197.098.315c.013.041-.033.075-.067.05l-.265-.192-.265.192c-.034.025-.08-.009-.067-.05l.098-.315-.262-.197c-.034-.025-.017-.08.026-.08l.325-.003.103-.314c.014-.04.07-.04.084 0zM8.836 4.385l.103.314.325.002c.043 0 .06.055.026.08l-.262.197.098.316c.013.04-.033.074-.067.05l-.265-.193-.265.192c-.034.025-.08-.009-.067-.05l.098-.315-.262-.196c-.034-.026-.017-.08.026-.08l.325-.003.103-.314c.014-.041.07-.041.084 0zM8.836 6.027l.103.314.325.002c.043 0 .06.055.026.08l-.262.197.098.316c.013.04-.033.074-.067.05l-.265-.193-.265.192c-.034.025-.08-.008-.067-.05l.098-.315-.262-.196c-.034-.026-.017-.08.026-.08l.325-.003.103-.314c.014-.04.07-.04.084 0zM8.836 7.669l.103.314.325.002c.043 0 .06.055.026.08l-.262.197.098.316c.013.04-.033.075-.067.05l-.265-.193-.265.193c-.034.025-.08-.01-.067-.05l.098-.316-.262-.196c-.034-.026-.017-.08.026-.08l.325-.003.103-.314c.014-.04.07-.04.084 0zM10.09 1.905l.103.314.326.003c.042 0 .06.055.026.08l-.262.197.098.315c.013.041-.033.075-.067.05l-.265-.192-.265.192c-.035.025-.08-.009-.068-.05l.099-.315-.262-.197c-.034-.025-.017-.08.025-.08l.326-.003.103-.314c.013-.04.07-.04.083 0zM10.09 3.548l.103.313.326.003c.042 0 .06.055.026.08l-.262.197.098.316c.013.04-.033.074-.067.05l-.265-.193-.265.192c-.035.025-.08-.009-.068-.05l.099-.315-.262-.197c-.034-.025-.017-.08.025-.08l.326-.003.103-.313c.013-.041.07-.041.083 0zM10.09 5.19l.103.314.326.002c.042 0 .06.055.026.08l-.262.197.098.316c.013.04-.033.074-.067.05l-.265-.193-.265.192c-.035.025-.08-.008-.068-.05l.099-.315-.262-.196c-.034-.026-.017-.08.025-.08l.326-.003.103-.314c.013-.04.07-.04.083 0zM10.09 6.832l.103.314.326.002c.042 0 .06.055.026.08l-.262.197.098.316c.013.04-.033.075-.067.05l-.265-.193-.265.193c-.035.025-.08-.01-.068-.05l.099-.316-.262-.196c-.034-.026-.017-.08.025-.08l.326-.003.103-.314c.013-.04.07-.04.083 0zM11.345 1.1l.103.314.326.003c.042 0 .06.055.026.08l-.262.197.098.315c.013.041-.033.075-.068.05l-.265-.193-.265.193c-.034.025-.08-.009-.067-.05l.098-.315-.262-.197c-.034-.025-.016-.08.026-.08l.326-.003.103-.314c.013-.04.07-.04.083 0zM11.345 2.742l.103.314.326.003c.042 0 .06.055.026.08l-.262.197.098.315c.013.041-.033.075-.068.05l-.265-.192-.265.192c-.034.025-.08-.009-.067-.05l.098-.315-.262-.197c-.034-.025-.016-.08.026-.08l.326-.003.103-.314c.013-.04.07-.04.083 0zM11.345 4.385l.103.314.326.002c.042 0 .06.055.026.08l-.262.197.098.316c.013.04-.033.074-.068.05l-.265-.193-.265.192c-.034.025-.08-.009-.067-.05l.098-.315-.262-.196c-.034-.026-.016-.08.026-.08l.326-.003.103-.314c.013-.041.07-.041.083 0zM11.345 6.027l.103.314.326.002c.042 0 .06.055.026.08l-.262.197.098.316c.013.04-.033.074-.068.05l-.265-.193-.265.192c-.034.025-.08-.008-.067-.05l.098-.315-.262-.196c-.034-.026-.016-.08.026-.08l.326-.003.103-.314c.013-.04.07-.04.083 0zM11.345 7.669l.103.314.326.002c.042 0 .06.055.026.08l-.262.197.098.316c.013.04-.033.075-.068.05l-.265-.193-.265.193c-.034.025-.08-.01-.067-.05l.098-.316-.262-.196c-.034-.026-.016-.08.026-.08l.326-.003.103-.314c.013-.04.07-.04.083 0z"/>
        </g>
    </g>
</svg>
