<svg xmlns="http://www.w3.org/2000/svg" width="27" height="18" viewBox="0 0 27 18">
    <g fill="none" fill-rule="nonzero">
        <path fill="#FF4B55" d="M24.978.015H2.022C.905.015 0 .935 0 2.069V15.93c0 1.135.905 2.054 2.022 2.054h22.956c1.117 0 2.022-.92 2.022-2.054V2.07C27 .934 26.095.015 24.978.015z"/>
        <g fill="#FFE15A">
            <path d="M4.483 2.825l.444 1.352 1.402.01c.182.002.257.238.111.347l-1.128.847.423 1.358c.055.176-.143.322-.29.214l-1.142-.828-1.14.828c-.148.108-.346-.038-.29-.214l.422-1.358-1.128-.847c-.146-.11-.071-.345.11-.346l1.403-.011.444-1.352a.188.188 0 0 1 .359 0zM9.577 3.158l.318.44.513-.162c.067-.022.122.056.08.113l-.314.444.312.445c.04.058-.015.135-.081.113l-.513-.167-.321.44c-.042.056-.13.026-.13-.045l-.003-.546-.51-.175c-.066-.023-.066-.117 0-.14l.512-.17.006-.548c0-.07.09-.1.13-.042zM7.639 1.844l.535.059.228-.495a.072.072 0 0 1 .137.016l.11.535.534.068c.069.008.087.101.027.137l-.467.271.102.537c.013.07-.069.116-.12.069l-.399-.368-.47.265c-.062.034-.13-.03-.102-.095l.22-.499-.392-.373c-.051-.048-.012-.135.057-.127zM8.485 7.142l-.319.44-.513-.163c-.067-.02-.121.056-.08.114l.314.443-.312.446c-.04.058.015.135.082.113l.512-.167.321.439c.042.057.13.027.13-.044l.003-.546.51-.175c.066-.023.066-.118 0-.14l-.511-.171-.006-.547c-.001-.07-.09-.1-.131-.042zM10.422 5.907l-.535.059-.228-.495a.072.072 0 0 0-.137.016l-.11.535-.534.068c-.069.008-.087.101-.027.137l.467.271-.102.537c-.013.07.069.116.12.069l.399-.368.47.265c.062.034.13-.03.102-.095l-.22-.499.392-.373c.051-.048.013-.135-.057-.127z"/>
        </g>
    </g>
</svg>
